<svg xmlns="http://www.w3.org/2000/svg" width="500" height="500" style="width:100%;height:100%"><defs><clipPath id="a"><path d="M0 0h500v500H0z"/></clipPath></defs><g clip-path="url(#a)"><path stroke-linecap="round" stroke-linejoin="round" stroke="#FFF" stroke-width="17.150000000000002" d="M371.32 201.245c-17.944-42.066-59.671-71.558-108.293-71.558-45.444 0-84.843 25.775-104.454 63.487a36.508 36.508 0 00-11.312-1.799c-20.226 0-36.62 16.398-36.62 36.624 0 2.709.314 5.341.871 7.882-21.794 11.473-36.677 34.307-36.677 60.648 0 37.849 30.685 68.534 68.534 68.534h196.949c46.858 0 84.847-37.986 84.847-84.844 0-35.913-22.327-66.591-53.845-78.974z" fill="none" display="block"/><path stroke-linecap="round" stroke-linejoin="round" stroke="#FFF" stroke-width="17.150000000000002" d="M181.764 215.63c-5.1-14.13-18.592-24.255-34.479-24.255m223.766 9.058c6.262 14.381 9.734 30.254 9.734 46.942 0 0 .038 12.429-4.274 27.681" fill="none" display="block"/></g></svg>